<?xml version="1.0" encoding="utf-8"?>
<!-- Generator: Adobe Illustrator 18.1.0, SVG Export Plug-In . SVG Version: 6.00 Build 0)  -->
<svg version="1.1" id="Layer_1" xmlns="http://www.w3.org/2000/svg" xmlns:xlink="http://www.w3.org/1999/xlink" x="0px" y="0px"
	 width="152px" height="46px" viewBox="53 0 152 46" enable-background="new 53 0 152 46" xml:space="preserve">
<rect x="53" fill="#FFFFFF" width="152" height="46"/>
<rect x="159" fill="#AAAAAA" width="46" height="46"/>
<rect x="53" fill="#60B050" width="104" height="46"/>
<rect x="155.1" y="27" fill="#FFFFFF" width="6" height="6"/>
<g>
	<g>
		<path fill="#FFFFFF" d="M180.9,19.7c-0.3-0.6-0.7-1.1-1.2-1.6c-0.4-0.4-0.9-0.8-1.4-1c-0.5-0.3-1-0.5-1.6-0.6
			c-0.5-0.1-1-0.2-1.5-0.2c-0.6,0-1.1,0.1-1.6,0.2s-0.9,0.3-1.3,0.5c-0.4,0.2-0.7,0.5-1.1,0.9s-0.6,0.8-0.9,1.3h-0.1v-2.3h-4v22.6
			h4.2v-8.3h0.1c0.3,0.5,0.6,0.9,0.9,1.2c0.4,0.3,0.7,0.6,1.1,0.8c0.4,0.2,0.8,0.3,1.2,0.4c0.4,0.1,0.8,0.1,1.2,0.1
			c1.2,0,2.2-0.2,3.1-0.7s1.6-1.1,2.2-1.8c0.6-0.8,1-1.7,1.3-2.8c0.3-1.1,0.4-2.3,0.4-3.6c0-1.1-0.1-2-0.3-2.8
			C181.5,21,181.2,20.3,180.9,19.7z M177.5,26c0,0.4-0.1,0.7-0.2,1.1c-0.1,0.4-0.2,0.7-0.4,1.1c-0.2,0.4-0.4,0.7-0.7,0.9
			c-0.3,0.3-0.6,0.5-1,0.7c-0.4,0.2-0.8,0.2-1.3,0.2c-0.5,0-1-0.1-1.3-0.2c-0.4-0.2-0.7-0.4-1-0.7c-0.3-0.3-0.5-0.6-0.7-0.9
			c-0.2-0.3-0.3-0.7-0.4-1.1c-0.1-0.4-0.2-0.7-0.2-1.1c0-0.4-0.1-0.7-0.1-1c0-0.6,0.1-1.1,0.2-1.7c0.1-0.6,0.3-1.1,0.6-1.6
			s0.7-0.8,1.1-1.1c0.5-0.3,1-0.4,1.7-0.4c0.7,0,1.2,0.1,1.7,0.4c0.5,0.3,0.8,0.7,1.1,1.1s0.5,1,0.6,1.6c0.1,0.6,0.2,1.2,0.2,1.7
			C177.6,25.3,177.6,25.6,177.5,26z M195.2,16.8l-3.3,12h-0.1l-3.5-12h-4.8l6,17.2c0,0.2,0,0.4-0.1,0.6s-0.2,0.5-0.4,0.7
			s-0.4,0.4-0.7,0.6c-0.3,0.2-0.7,0.3-1.1,0.3c-0.2,0-0.4,0-0.6,0s-0.5,0-0.6-0.1v3.4c0.3,0,0.6,0.1,0.9,0.1c0.2,0,0.5,0,0.8,0
			c0.7,0,1.3,0,1.8-0.1s1-0.2,1.3-0.4s0.7-0.4,1-0.8c0.3-0.3,0.6-0.7,0.8-1.2s0.5-1.1,0.8-1.8c0.3-0.7,0.6-1.5,0.9-2.4l5.6-16.1
			L195.2,16.8L195.2,16.8z"/>
	</g>
</g>
<g>
	<g>
		<path fill="#FFFFFF" d="M60.4,32.9h4.6V14.7h8.7v18.2h4.6v-22H60.4V32.9z M97.1,19.5c-0.3-0.6-0.7-1.1-1.2-1.6
			c-0.4-0.4-0.9-0.8-1.4-1c-0.5-0.3-1-0.5-1.6-0.6c-0.5-0.1-1-0.2-1.5-0.2c-0.6,0-1.1,0.1-1.6,0.2c-0.5,0.1-0.9,0.3-1.3,0.5
			c-0.4,0.2-0.7,0.5-1.1,0.9c-0.3,0.4-0.6,0.8-0.9,1.3h-0.1v-2.3h-4v22.6h4.2v-8.3h0.1c0.3,0.5,0.6,0.9,0.9,1.2
			c0.4,0.3,0.7,0.6,1.1,0.8c0.4,0.2,0.8,0.3,1.2,0.4c0.4,0.1,0.8,0.1,1.2,0.1c1.2,0,2.2-0.2,3.1-0.7c0.9-0.4,1.6-1.1,2.2-1.8
			c0.6-0.8,1-1.7,1.3-2.8c0.3-1.1,0.4-2.3,0.4-3.6c0-1.1-0.1-2-0.3-2.8C97.7,20.8,97.4,20.1,97.1,19.5z M93.7,25.8
			c0,0.4-0.1,0.7-0.2,1.1c-0.1,0.4-0.2,0.7-0.4,1.1c-0.2,0.3-0.4,0.7-0.7,0.9c-0.3,0.3-0.6,0.5-1,0.7c-0.4,0.2-0.8,0.2-1.3,0.2
			c-0.5,0-1-0.1-1.3-0.2c-0.4-0.2-0.7-0.4-1-0.7c-0.3-0.3-0.5-0.6-0.7-0.9c-0.2-0.3-0.3-0.7-0.4-1.1c-0.1-0.4-0.2-0.7-0.2-1.1
			c0-0.4-0.1-0.7-0.1-1c0-0.6,0.1-1.1,0.2-1.7c0.1-0.6,0.3-1.1,0.6-1.6c0.3-0.5,0.7-0.8,1.1-1.1c0.5-0.3,1-0.4,1.7-0.4
			c0.7,0,1.2,0.1,1.7,0.4c0.5,0.3,0.8,0.7,1.1,1.1c0.3,0.5,0.5,1,0.6,1.6c0.1,0.6,0.2,1.2,0.2,1.7C93.8,25.1,93.7,25.4,93.7,25.8z
			 M114.8,18.5c-0.7-0.8-1.6-1.4-2.6-1.8c-1-0.4-2.2-0.6-3.5-0.6c-1.3,0-2.4,0.2-3.5,0.6c-1,0.4-1.9,1-2.6,1.8
			c-0.7,0.8-1.3,1.7-1.7,2.7c-0.4,1.1-0.6,2.2-0.6,3.5s0.2,2.4,0.6,3.5c0.4,1.1,0.9,2,1.7,2.7c0.7,0.8,1.6,1.4,2.6,1.8
			c1,0.4,2.2,0.6,3.5,0.6c1.3,0,2.5-0.2,3.5-0.6c1-0.4,1.9-1,2.6-1.8c0.7-0.8,1.3-1.7,1.6-2.7c0.4-1.1,0.6-2.2,0.6-3.5
			s-0.2-2.4-0.6-3.5C116,20.2,115.5,19.3,114.8,18.5z M112.4,26.6c-0.1,0.6-0.3,1.1-0.6,1.6c-0.3,0.5-0.7,0.8-1.2,1.1
			c-0.5,0.3-1.1,0.4-1.9,0.4c-0.7,0-1.3-0.1-1.8-0.4c-0.5-0.3-0.9-0.7-1.2-1.1c-0.3-0.5-0.5-1-0.7-1.6c-0.1-0.6-0.2-1.2-0.2-1.8
			c0-0.6,0.1-1.2,0.2-1.8c0.1-0.6,0.4-1.1,0.7-1.6c0.3-0.5,0.7-0.9,1.2-1.1c0.5-0.3,1.1-0.4,1.8-0.4c0.8,0,1.4,0.1,1.9,0.4
			c0.5,0.3,0.9,0.7,1.2,1.1c0.3,0.5,0.5,1,0.6,1.6c0.1,0.6,0.2,1.2,0.2,1.9C112.5,25.4,112.5,26,112.4,26.6z M132,25.5
			c-0.2-0.3-0.6-0.6-1-0.9c-0.4-0.2-0.9-0.4-1.5-0.5v-0.1c0.3-0.1,0.7-0.2,1-0.4c0.3-0.2,0.6-0.4,0.8-0.7c0.2-0.3,0.4-0.6,0.6-1
			c0.1-0.4,0.2-0.8,0.2-1.3c0-0.6-0.1-1.1-0.4-1.7c-0.2-0.6-0.6-1-1.1-1.5c-0.5-0.4-1.2-0.8-1.9-1c-0.8-0.3-1.7-0.4-2.8-0.4
			c-1,0-1.9,0.1-2.7,0.3c-0.8,0.2-1.5,0.5-2.2,0.9c-0.6,0.4-1.1,0.9-1.4,1.5c-0.4,0.6-0.5,1.4-0.5,2.3h4c0-0.6,0.2-1.1,0.7-1.5
			c0.5-0.3,1.1-0.5,1.8-0.5c0.3,0,0.6,0,0.9,0.1c0.3,0.1,0.5,0.2,0.7,0.3c0.2,0.2,0.4,0.4,0.5,0.6c0.1,0.2,0.2,0.6,0.2,0.9
			c0,0.6-0.2,1.1-0.6,1.4c-0.4,0.3-1.1,0.5-2,0.5h-1.6v2.8h1.9c0.9,0,1.6,0.2,2,0.5c0.4,0.3,0.6,0.9,0.6,1.6c0,0.2,0,0.5-0.1,0.8
			c-0.1,0.3-0.2,0.6-0.4,0.8c-0.2,0.2-0.5,0.5-0.8,0.6c-0.3,0.2-0.8,0.2-1.3,0.2c-0.4,0-0.8-0.1-1.2-0.2c-0.3-0.1-0.6-0.3-0.9-0.5
			c-0.2-0.2-0.4-0.5-0.6-0.8c-0.1-0.3-0.2-0.7-0.2-1h-4c0,1,0.2,1.9,0.6,2.6c0.4,0.7,0.9,1.3,1.5,1.7c0.6,0.4,1.4,0.8,2.3,1
			c0.9,0.2,1.9,0.3,2.9,0.3c0.8,0,1.6-0.1,2.4-0.3c0.8-0.2,1.5-0.5,2.2-1c0.6-0.4,1.2-1,1.6-1.7c0.4-0.7,0.6-1.6,0.6-2.6
			c0-0.4-0.1-0.8-0.2-1.2C132.4,26.2,132.2,25.8,132,25.5z M149.2,32.1c-0.1-0.1-0.2-0.2-0.3-0.4c-0.1-0.2-0.2-0.4-0.2-0.7
			c-0.1-0.3-0.1-0.7-0.1-1.2V21c0-0.6-0.1-1.2-0.3-1.7c-0.2-0.6-0.5-1.1-1-1.6c-0.5-0.5-1.2-0.9-2.1-1.2c-0.9-0.3-2.1-0.4-3.5-0.4
			c-1,0-1.9,0.1-2.7,0.4c-0.7,0.2-1.4,0.5-1.9,0.9c-0.5,0.4-0.9,0.7-1.2,1.2c-0.3,0.4-0.6,0.9-0.7,1.3c-0.2,0.4-0.3,0.8-0.4,1.2
			c-0.1,0.4-0.1,0.6-0.1,0.8h4.2c0-0.3,0.1-0.6,0.2-0.9c0.1-0.3,0.2-0.5,0.4-0.7c0.2-0.2,0.5-0.4,0.8-0.5c0.3-0.1,0.8-0.2,1.4-0.2
			c0.5,0,0.9,0,1.3,0.1c0.3,0.1,0.6,0.2,0.8,0.4c0.2,0.2,0.3,0.4,0.4,0.6c0.1,0.2,0.1,0.5,0.1,0.7c0,0.3-0.1,0.5-0.1,0.7
			c-0.1,0.2-0.2,0.3-0.4,0.4c-0.1,0.1-0.3,0.2-0.5,0.2c-0.2,0-0.3,0.1-0.5,0.1l-4.2,0.6c-0.7,0.1-1.3,0.3-1.9,0.6s-1,0.6-1.4,1.1
			c-0.4,0.4-0.7,0.9-0.9,1.5c-0.2,0.6-0.3,1.2-0.3,1.9c0,0.8,0.1,1.6,0.4,2.2c0.2,0.6,0.6,1.2,1,1.6c0.4,0.4,1,0.7,1.6,1
			c0.6,0.2,1.3,0.3,2,0.3c0.7,0,1.3-0.1,1.8-0.2c0.5-0.1,1-0.3,1.3-0.5c0.4-0.2,0.7-0.5,1.1-0.8c0.3-0.3,0.6-0.6,1-0.9
			c0,0.4,0,0.8,0.1,1.1c0.1,0.3,0.2,0.6,0.3,0.8h4.7v-0.7C149.4,32.2,149.3,32.1,149.2,32.1z M144.3,26.6c0,0.5-0.1,1-0.2,1.4
			c-0.1,0.4-0.3,0.7-0.5,1c-0.2,0.3-0.5,0.5-0.7,0.7c-0.3,0.2-0.6,0.3-0.8,0.4c-0.3,0.1-0.5,0.2-0.8,0.2c-0.2,0-0.5,0.1-0.6,0.1
			c-0.3,0-0.6,0-0.8-0.1c-0.3-0.1-0.5-0.2-0.7-0.4c-0.2-0.2-0.3-0.4-0.5-0.6c-0.1-0.3-0.2-0.6-0.2-0.9c0-0.4,0.1-0.8,0.2-1
			c0.1-0.3,0.3-0.5,0.6-0.7c0.2-0.2,0.6-0.4,0.9-0.5c0.4-0.1,0.8-0.2,1.3-0.3l1.1-0.2c0.4-0.1,0.8-0.2,1-0.3
			c0.3-0.1,0.5-0.2,0.8-0.4V26.6z"/>
	</g>
</g>
</svg>
